<?xml version="1.0" encoding="utf-8"?>
<svg xmlns="http://www.w3.org/2000/svg" xmlns:xlink="http://www.w3.org/1999/xlink" style="margin: auto; background: rgb(255, 255, 255); display: block; shape-rendering: auto;" width="364px" height="364px" viewBox="0 0 100 100" preserveAspectRatio="xMidYMid">
<g transform="rotate(0 50 50)">
  <rect x="47" y="20" rx="3" ry="4.8" width="6" height="20" fill="#0b70e7">
    <animate attributeName="opacity" values="1;0" keyTimes="0;1" dur="0.641025641025641s" begin="-0.5952380952380952s" repeatCount="indefinite"></animate>
  </rect>
</g><g transform="rotate(25.714285714285715 50 50)">
  <rect x="47" y="20" rx="3" ry="4.8" width="6" height="20" fill="#0b70e7">
    <animate attributeName="opacity" values="1;0" keyTimes="0;1" dur="0.641025641025641s" begin="-0.5494505494505495s" repeatCount="indefinite"></animate>
  </rect>
</g><g transform="rotate(51.42857142857143 50 50)">
  <rect x="47" y="20" rx="3" ry="4.8" width="6" height="20" fill="#0b70e7">
    <animate attributeName="opacity" values="1;0" keyTimes="0;1" dur="0.641025641025641s" begin="-0.5036630036630036s" repeatCount="indefinite"></animate>
  </rect>
</g><g transform="rotate(77.14285714285714 50 50)">
  <rect x="47" y="20" rx="3" ry="4.8" width="6" height="20" fill="#0b70e7">
    <animate attributeName="opacity" values="1;0" keyTimes="0;1" dur="0.641025641025641s" begin="-0.45787545787545786s" repeatCount="indefinite"></animate>
  </rect>
</g><g transform="rotate(102.85714285714286 50 50)">
  <rect x="47" y="20" rx="3" ry="4.8" width="6" height="20" fill="#0b70e7">
    <animate attributeName="opacity" values="1;0" keyTimes="0;1" dur="0.641025641025641s" begin="-0.41208791208791207s" repeatCount="indefinite"></animate>
  </rect>
</g><g transform="rotate(128.57142857142858 50 50)">
  <rect x="47" y="20" rx="3" ry="4.8" width="6" height="20" fill="#0b70e7">
    <animate attributeName="opacity" values="1;0" keyTimes="0;1" dur="0.641025641025641s" begin="-0.3663003663003663s" repeatCount="indefinite"></animate>
  </rect>
</g><g transform="rotate(154.28571428571428 50 50)">
  <rect x="47" y="20" rx="3" ry="4.8" width="6" height="20" fill="#0b70e7">
    <animate attributeName="opacity" values="1;0" keyTimes="0;1" dur="0.641025641025641s" begin="-0.32051282051282054s" repeatCount="indefinite"></animate>
  </rect>
</g><g transform="rotate(180 50 50)">
  <rect x="47" y="20" rx="3" ry="4.8" width="6" height="20" fill="#0b70e7">
    <animate attributeName="opacity" values="1;0" keyTimes="0;1" dur="0.641025641025641s" begin="-0.27472527472527475s" repeatCount="indefinite"></animate>
  </rect>
</g><g transform="rotate(205.71428571428572 50 50)">
  <rect x="47" y="20" rx="3" ry="4.8" width="6" height="20" fill="#0b70e7">
    <animate attributeName="opacity" values="1;0" keyTimes="0;1" dur="0.641025641025641s" begin="-0.22893772893772893s" repeatCount="indefinite"></animate>
  </rect>
</g><g transform="rotate(231.42857142857142 50 50)">
  <rect x="47" y="20" rx="3" ry="4.8" width="6" height="20" fill="#0b70e7">
    <animate attributeName="opacity" values="1;0" keyTimes="0;1" dur="0.641025641025641s" begin="-0.18315018315018314s" repeatCount="indefinite"></animate>
  </rect>
</g><g transform="rotate(257.14285714285717 50 50)">
  <rect x="47" y="20" rx="3" ry="4.8" width="6" height="20" fill="#0b70e7">
    <animate attributeName="opacity" values="1;0" keyTimes="0;1" dur="0.641025641025641s" begin="-0.13736263736263737s" repeatCount="indefinite"></animate>
  </rect>
</g><g transform="rotate(282.85714285714283 50 50)">
  <rect x="47" y="20" rx="3" ry="4.8" width="6" height="20" fill="#0b70e7">
    <animate attributeName="opacity" values="1;0" keyTimes="0;1" dur="0.641025641025641s" begin="-0.09157509157509157s" repeatCount="indefinite"></animate>
  </rect>
</g><g transform="rotate(308.57142857142856 50 50)">
  <rect x="47" y="20" rx="3" ry="4.8" width="6" height="20" fill="#0b70e7">
    <animate attributeName="opacity" values="1;0" keyTimes="0;1" dur="0.641025641025641s" begin="-0.045787545787545784s" repeatCount="indefinite"></animate>
  </rect>
</g><g transform="rotate(334.2857142857143 50 50)">
  <rect x="47" y="20" rx="3" ry="4.8" width="6" height="20" fill="#0b70e7">
    <animate attributeName="opacity" values="1;0" keyTimes="0;1" dur="0.641025641025641s" begin="0s" repeatCount="indefinite"></animate>
  </rect>
</g>
<!-- [ldio] generated by https://loading.io/ --></svg>